<svg id="svg4264" xmlns:rdf="http://www.w3.org/1999/02/22-rdf-syntax-ns#" xmlns="http://www.w3.org/2000/svg" height="19" viewBox="0 0 269 187" width="27" version="1.1" xmlns:cc="http://creativecommons.org/ns#" xmlns:dc="http://purl.org/dc/elements/1.1/">
 <g id="g4217" fill-rule="evenodd" fill="#fff">
  <path id="path4276" d="m100.77-0.0000023853c100.77 0 100.77 0 100.77 70.049s0 70.049-100.77 70.049-100.77-3-100.77-70.053c0-70.049 0-70.049 100.77-70.049zm-19.079 38.749v62.601l50.14-31.299zm168.94 14.782c7.6739 9.8555 7.7641 26.876 7.7641 56.567 0 70.049-0.008 70.052-100.78 70.052-42.707 0-67.198-0.57994-81.377-6.3047 10.603 13.293 35.245 14.322 92.741 14.322 100.77 0 100.78-0.003 100.78-70.052 0-40.184-0.10451-57.28-19.128-64.584zm-22.75-16.014c7.6739 9.8555 7.7641 26.876 7.7641 56.567 0 70.049 0.0119 70.052-100.76 70.052-42.725 0-67.221-0.61182-81.397-6.3436 10.589 13.324 35.218 14.341 92.761 14.341 100.77 0 100.76 0.0159 100.76-70.033 0-40.194-0.0907-57.283-19.128-64.584zm-22.71-16.015c7.6582 9.8586 7.7446 26.896 7.7446 56.567 0 70.049-0.008 70.033-100.78 70.033-42.707 0-67.198-0.57994-81.377-6.3047 10.603 13.293 35.245 14.322 92.741 14.322 100.77 0 100.78-0.003 100.78-70.052 0-40.17-0.10531-57.256-19.109-64.565z"/>
 </g>
</svg>
